# xmcd
#
# Track frame offsets:
#	150
#	18077
#	37494
#	53993
#	74464
#	91217
#	108614
#	123756
#	143703
#	163577
#
# Disc length: 2416 seconds
#
# Revision: 1
# Processed by: cddbd v1.5.2PL0 Copyright (c) Steve Scherf et al.
# Submitted via: audiograbber 1.83.01
#
DISCID=88096e0a
DTITLE=Arpia - Ensirakkaus
DYEAR=2013
DGENRE=Pop
TTITLE0=Kaikki Muuttuu
TTITLE1=Kahdesta Tulee Yksi
TTITLE2=Rakkaus
TTITLE3=Kylm‰‰n Huoneeseen
TTITLE4=Mustat Sukat
TTITLE5=Ei Se Ollutkaan Niin
TTITLE6=Ovet Auki
TTITLE7=Hetken Irrallaan
TTITLE8=Rakkauden Kartta
TTITLE9=Historia
EXTD=TR.
EXTT0=
EXTT1=
EXTT2=
EXTT3=
EXTT4=
EXTT5=
EXTT6=
EXTT7=
EXTT8=
EXTT9=
PLAYORDER=
